<mxfile host="app.diagrams.net" modified="2024-04-10T21:57:34.595Z" agent="Mozilla/5.0 (Windows NT 10.0; Win64; x64) AppleWebKit/537.36 (KHTML, like Gecko) Chrome/123.0.0.0 Safari/537.36" etag="FZMx7j2l9dkRI0E_UdnQ" version="24.2.2" type="github">
  <diagram id="6a731a19-8d31-9384-78a2-239565b7b9f0" name="Page-1">
    <mxGraphModel dx="2028" dy="2317" grid="1" gridSize="10" guides="1" tooltips="1" connect="1" arrows="1" fold="1" page="1" pageScale="1" pageWidth="827" pageHeight="1169" background="none" math="0" shadow="0">
      <root>
        <mxCell id="0" />
        <mxCell id="1" parent="0" />
        <mxCell id="2086" value="" style="rounded=1;whiteSpace=wrap;html=1;strokeColor=none;fillColor=#BAC8D3;fontSize=24;fontColor=#23445D;align=center;opacity=60;" parent="1" vertex="1">
          <mxGeometry x="715" y="420" width="160" height="260" as="geometry" />
        </mxCell>
        <mxCell id="2087" value="&lt;font color=&quot;#23445d&quot;&gt;WAN&lt;/font&gt;" style="rounded=1;whiteSpace=wrap;html=1;strokeColor=none;fillColor=none;fontSize=14;fontColor=#742B21;align=center;fontStyle=1" parent="1" vertex="1">
          <mxGeometry x="759" y="434" width="73" height="19" as="geometry" />
        </mxCell>
        <mxCell id="2088" value="" style="rounded=1;whiteSpace=wrap;html=1;strokeColor=none;fillColor=#BAC8D3;fontSize=24;fontColor=#23445D;align=center;opacity=60;" parent="1" vertex="1">
          <mxGeometry x="1354" y="769" width="260" height="247" as="geometry" />
        </mxCell>
        <mxCell id="2089" value="" style="rounded=1;whiteSpace=wrap;html=1;strokeColor=none;fillColor=#BAC8D3;fontSize=24;fontColor=#23445D;align=center;opacity=60;" parent="1" vertex="1">
          <mxGeometry x="650" y="760" width="273" height="380" as="geometry" />
        </mxCell>
        <mxCell id="2090" value="" style="rounded=1;whiteSpace=wrap;html=1;strokeColor=none;fillColor=#BAC8D3;fontSize=24;fontColor=#23445D;align=center;opacity=60;" parent="1" vertex="1">
          <mxGeometry x="1403" y="420" width="160" height="260" as="geometry" />
        </mxCell>
        <mxCell id="2091" value="" style="rounded=1;whiteSpace=wrap;html=1;strokeColor=none;fillColor=#BAC8D3;fontSize=24;fontColor=#23445D;align=center;opacity=60;" parent="1" vertex="1">
          <mxGeometry x="1123" y="525" width="160" height="615" as="geometry" />
        </mxCell>
        <mxCell id="2092" value="" style="rounded=1;whiteSpace=wrap;html=1;strokeColor=none;fillColor=#BAC8D3;fontSize=24;fontColor=#23445D;align=center;opacity=60;" parent="1" vertex="1">
          <mxGeometry x="350" y="680" width="260" height="300" as="geometry" />
        </mxCell>
        <mxCell id="2093" value="" style="rounded=1;whiteSpace=wrap;html=1;strokeColor=none;fillColor=#BAC8D3;fontSize=24;fontColor=#23445D;align=center;opacity=60;" parent="1" vertex="1">
          <mxGeometry x="28" y="529" width="290" height="631" as="geometry" />
        </mxCell>
        <mxCell id="2094" value="" style="rounded=1;whiteSpace=wrap;html=1;strokeColor=none;fillColor=#BAC8D3;fontSize=24;fontColor=#23445D;align=center;opacity=60;" parent="1" vertex="1">
          <mxGeometry x="1204" y="12" width="450" height="210" as="geometry" />
        </mxCell>
        <mxCell id="2095" value="" style="rounded=1;whiteSpace=wrap;html=1;strokeColor=none;fillColor=#BAC8D3;fontSize=24;fontColor=#23445D;align=center;opacity=60;" parent="1" vertex="1">
          <mxGeometry x="30" y="30" width="690" height="200" as="geometry" />
        </mxCell>
        <mxCell id="2096" value="" style="shape=mxgraph.cisco.computers_and_peripherals.workstation;html=1;dashed=0;fillColor=#10739E;strokeColor=#ffffff;strokeWidth=2;verticalLabelPosition=bottom;verticalAlign=top;fontFamily=Helvetica;fontSize=36;fontColor=#FFB366" parent="1" vertex="1">
          <mxGeometry x="60" y="95" width="83" height="62" as="geometry" />
        </mxCell>
        <mxCell id="2109" value="Internet" style="shape=mxgraph.cisco.storage.cloud;html=1;dashed=0;strokeColor=#23445D;fillColor=#ffffff;strokeWidth=2;fontFamily=Helvetica;fontSize=24;fontColor=#23445D;align=center;fontStyle=1" parent="1" vertex="1">
          <mxGeometry x="827" width="186" height="106" as="geometry" />
        </mxCell>
        <mxCell id="2110" value="ZTNA" style="shape=mxgraph.cisco.storage.cloud;html=1;dashed=0;strokeColor=#23445D;fillColor=#ffffff;strokeWidth=2;fontFamily=Helvetica;fontSize=24;fontColor=#23445D;fontStyle=1" parent="1" vertex="1">
          <mxGeometry x="827" y="124" width="186" height="106" as="geometry" />
        </mxCell>
        <mxCell id="2114" value="" style="shape=mxgraph.cisco.switches.workgroup_switch;html=1;dashed=0;fillColor=#10739E;strokeColor=#ffffff;strokeWidth=2;verticalLabelPosition=bottom;verticalAlign=top;fontFamily=Helvetica;fontSize=36;fontColor=#FFB366" parent="1" vertex="1">
          <mxGeometry x="142" y="464" width="101" height="50" as="geometry" />
        </mxCell>
        <mxCell id="2116" value="" style="shape=mxgraph.cisco.switches.workgroup_switch;html=1;dashed=0;fillColor=#10739E;strokeColor=#ffffff;strokeWidth=2;verticalLabelPosition=bottom;verticalAlign=top;fontFamily=Helvetica;fontSize=36;fontColor=#FFB366" parent="1" vertex="1">
          <mxGeometry x="500" y="476" width="101" height="50" as="geometry" />
        </mxCell>
        <mxCell id="2117" value="" style="shape=mxgraph.cisco.switches.workgroup_switch;html=1;dashed=0;fillColor=#10739E;strokeColor=#ffffff;strokeWidth=2;verticalLabelPosition=bottom;verticalAlign=top;fontFamily=Helvetica;fontSize=36;fontColor=#FFB366" parent="1" vertex="1">
          <mxGeometry x="1209" y="460" width="101" height="50" as="geometry" />
        </mxCell>
        <mxCell id="2118" value="" style="shape=mxgraph.cisco.switches.workgroup_switch;html=1;dashed=0;fillColor=#10739E;strokeColor=#ffffff;strokeWidth=2;verticalLabelPosition=bottom;verticalAlign=top;fontFamily=Helvetica;fontSize=36;fontColor=#FFB366" parent="1" vertex="1">
          <mxGeometry x="361" y="696" width="101" height="50" as="geometry" />
        </mxCell>
        <mxCell id="2119" value="" style="shape=mxgraph.cisco.switches.workgroup_switch;html=1;dashed=0;fillColor=#10739E;strokeColor=#ffffff;strokeWidth=2;verticalLabelPosition=bottom;verticalAlign=top;fontFamily=Helvetica;fontSize=36;fontColor=#FFB366" parent="1" vertex="1">
          <mxGeometry x="483" y="854" width="101" height="50" as="geometry" />
        </mxCell>
        <mxCell id="2120" value="" style="shape=mxgraph.cisco.misc.access_point;html=1;dashed=0;fillColor=#10739E;strokeColor=#ffffff;strokeWidth=2;verticalLabelPosition=bottom;verticalAlign=top;fontFamily=Helvetica;fontSize=36;fontColor=#FFB366" parent="1" vertex="1">
          <mxGeometry x="223" y="555" width="75" height="34" as="geometry" />
        </mxCell>
        <mxCell id="2121" value="" style="shape=mxgraph.cisco.misc.access_point;html=1;dashed=0;fillColor=#10739E;strokeColor=#ffffff;strokeWidth=2;verticalLabelPosition=bottom;verticalAlign=top;fontFamily=Helvetica;fontSize=36;fontColor=#FFB366" parent="1" vertex="1">
          <mxGeometry x="223" y="623" width="75" height="34" as="geometry" />
        </mxCell>
        <mxCell id="2122" value="" style="shape=mxgraph.cisco.misc.access_point;html=1;dashed=0;fillColor=#10739E;strokeColor=#ffffff;strokeWidth=2;verticalLabelPosition=bottom;verticalAlign=top;fontFamily=Helvetica;fontSize=36;fontColor=#FFB366" parent="1" vertex="1">
          <mxGeometry x="223" y="852" width="75" height="34" as="geometry" />
        </mxCell>
        <mxCell id="2123" value="" style="shape=mxgraph.cisco.misc.access_point;html=1;dashed=0;fillColor=#10739E;strokeColor=#ffffff;strokeWidth=2;verticalLabelPosition=bottom;verticalAlign=top;fontFamily=Helvetica;fontSize=36;fontColor=#FFB366" parent="1" vertex="1">
          <mxGeometry x="223" y="705" width="75" height="34" as="geometry" />
        </mxCell>
        <mxCell id="2124" value="" style="shape=mxgraph.cisco.misc.access_point;html=1;dashed=0;fillColor=#10739E;strokeColor=#ffffff;strokeWidth=2;verticalLabelPosition=bottom;verticalAlign=top;fontFamily=Helvetica;fontSize=36;fontColor=#FFB366" parent="1" vertex="1">
          <mxGeometry x="223" y="930" width="75" height="34" as="geometry" />
        </mxCell>
        <mxCell id="2125" value="" style="shape=mxgraph.cisco.misc.access_point;html=1;dashed=0;fillColor=#10739E;strokeColor=#ffffff;strokeWidth=2;verticalLabelPosition=bottom;verticalAlign=top;fontFamily=Helvetica;fontSize=36;fontColor=#FFB366" parent="1" vertex="1">
          <mxGeometry x="223" y="779" width="75" height="34" as="geometry" />
        </mxCell>
        <mxCell id="2126" value="" style="shape=mxgraph.cisco.hubs_and_gateways.100baset_hub;html=1;dashed=0;fillColor=#10739E;strokeColor=#ffffff;strokeWidth=2;verticalLabelPosition=bottom;verticalAlign=top;fontFamily=Helvetica;fontSize=36;fontColor=#FFB366" parent="1" vertex="1">
          <mxGeometry x="59" y="544" width="90" height="45" as="geometry" />
        </mxCell>
        <mxCell id="2127" value="" style="shape=mxgraph.cisco.hubs_and_gateways.100baset_hub;html=1;dashed=0;fillColor=#10739E;strokeColor=#ffffff;strokeWidth=2;verticalLabelPosition=bottom;verticalAlign=top;fontFamily=Helvetica;fontSize=36;fontColor=#FFB366" parent="1" vertex="1">
          <mxGeometry x="59" y="841" width="90" height="45" as="geometry" />
        </mxCell>
        <mxCell id="2128" value="" style="shape=mxgraph.cisco.hubs_and_gateways.100baset_hub;html=1;dashed=0;fillColor=#10739E;strokeColor=#ffffff;strokeWidth=2;verticalLabelPosition=bottom;verticalAlign=top;fontFamily=Helvetica;fontSize=36;fontColor=#FFB366" parent="1" vertex="1">
          <mxGeometry x="59" y="615" width="90" height="45" as="geometry" />
        </mxCell>
        <mxCell id="2129" value="" style="shape=mxgraph.cisco.hubs_and_gateways.100baset_hub;html=1;dashed=0;fillColor=#10739E;strokeColor=#ffffff;strokeWidth=2;verticalLabelPosition=bottom;verticalAlign=top;fontFamily=Helvetica;fontSize=36;fontColor=#FFB366" parent="1" vertex="1">
          <mxGeometry x="59" y="694" width="90" height="45" as="geometry" />
        </mxCell>
        <mxCell id="2130" value="" style="shape=mxgraph.cisco.hubs_and_gateways.100baset_hub;html=1;dashed=0;fillColor=#10739E;strokeColor=#ffffff;strokeWidth=2;verticalLabelPosition=bottom;verticalAlign=top;fontFamily=Helvetica;fontSize=36;fontColor=#FFB366" parent="1" vertex="1">
          <mxGeometry x="59" y="768" width="90" height="45" as="geometry" />
        </mxCell>
        <mxCell id="2132" value="" style="shape=mxgraph.cisco.routers.router;html=1;dashed=0;fillColor=#10739E;strokeColor=#ffffff;strokeWidth=2;verticalLabelPosition=bottom;verticalAlign=top;fontFamily=Helvetica;fontSize=36;fontColor=#FFB366" parent="1" vertex="1">
          <mxGeometry x="757" y="475" width="78" height="53" as="geometry" />
        </mxCell>
        <mxCell id="2133" value="" style="shape=mxgraph.cisco.routers.router;html=1;dashed=0;fillColor=#10739E;strokeColor=#ffffff;strokeWidth=2;verticalLabelPosition=bottom;verticalAlign=top;fontFamily=Helvetica;fontSize=36;fontColor=#FFB366" parent="1" vertex="1">
          <mxGeometry x="1444" y="476" width="78" height="53" as="geometry" />
        </mxCell>
        <mxCell id="2134" value="" style="shape=mxgraph.cisco.routers.router;html=1;dashed=0;fillColor=#10739E;strokeColor=#ffffff;strokeWidth=2;verticalLabelPosition=bottom;verticalAlign=top;fontFamily=Helvetica;fontSize=36;fontColor=#FFB366" parent="1" vertex="1">
          <mxGeometry x="757" y="594" width="78" height="53" as="geometry" />
        </mxCell>
        <mxCell id="2135" value="" style="shape=mxgraph.cisco.routers.router;html=1;dashed=0;fillColor=#10739E;strokeColor=#ffffff;strokeWidth=2;verticalLabelPosition=bottom;verticalAlign=top;fontFamily=Helvetica;fontSize=36;fontColor=#FFB366" parent="1" vertex="1">
          <mxGeometry x="1443" y="595" width="78" height="53" as="geometry" />
        </mxCell>
        <mxCell id="2136" value="" style="shape=mxgraph.cisco.switches.workgroup_switch;html=1;dashed=0;fillColor=#10739E;strokeColor=#ffffff;strokeWidth=2;verticalLabelPosition=bottom;verticalAlign=top;fontFamily=Helvetica;fontSize=36;fontColor=#FFB366" parent="1" vertex="1">
          <mxGeometry x="745" y="694" width="101" height="50" as="geometry" />
        </mxCell>
        <mxCell id="2137" value="" style="shape=mxgraph.cisco.switches.workgroup_switch;html=1;dashed=0;fillColor=#10739E;strokeColor=#ffffff;strokeWidth=2;verticalLabelPosition=bottom;verticalAlign=top;fontFamily=Helvetica;fontSize=36;fontColor=#FFB366" parent="1" vertex="1">
          <mxGeometry x="1432" y="691" width="101" height="50" as="geometry" />
        </mxCell>
        <mxCell id="2139" value="" style="shape=mxgraph.cisco.hubs_and_gateways.100baset_hub;html=1;dashed=0;fillColor=#10739E;strokeColor=#ffffff;strokeWidth=2;verticalLabelPosition=bottom;verticalAlign=top;fontFamily=Helvetica;fontSize=36;fontColor=#FFB366" parent="1" vertex="1">
          <mxGeometry x="59" y="919" width="90" height="45" as="geometry" />
        </mxCell>
        <mxCell id="2140" value="" style="shape=mxgraph.cisco.hubs_and_gateways.100baset_hub;html=1;dashed=0;fillColor=#10739E;strokeColor=#ffffff;strokeWidth=2;verticalLabelPosition=bottom;verticalAlign=top;fontFamily=Helvetica;fontSize=36;fontColor=#FFB366" parent="1" vertex="1">
          <mxGeometry x="1137" y="548" width="90" height="45" as="geometry" />
        </mxCell>
        <mxCell id="2141" value="" style="shape=mxgraph.cisco.hubs_and_gateways.100baset_hub;html=1;dashed=0;fillColor=#10739E;strokeColor=#ffffff;strokeWidth=2;verticalLabelPosition=bottom;verticalAlign=top;fontFamily=Helvetica;fontSize=36;fontColor=#FFB366" parent="1" vertex="1">
          <mxGeometry x="1137" y="845" width="90" height="45" as="geometry" />
        </mxCell>
        <mxCell id="2142" value="" style="shape=mxgraph.cisco.hubs_and_gateways.100baset_hub;html=1;dashed=0;fillColor=#10739E;strokeColor=#ffffff;strokeWidth=2;verticalLabelPosition=bottom;verticalAlign=top;fontFamily=Helvetica;fontSize=36;fontColor=#FFB366" parent="1" vertex="1">
          <mxGeometry x="1137" y="619" width="90" height="45" as="geometry" />
        </mxCell>
        <mxCell id="2143" value="" style="shape=mxgraph.cisco.hubs_and_gateways.100baset_hub;html=1;dashed=0;fillColor=#10739E;strokeColor=#ffffff;strokeWidth=2;verticalLabelPosition=bottom;verticalAlign=top;fontFamily=Helvetica;fontSize=36;fontColor=#FFB366" parent="1" vertex="1">
          <mxGeometry x="1137" y="698" width="90" height="45" as="geometry" />
        </mxCell>
        <mxCell id="2144" value="" style="shape=mxgraph.cisco.hubs_and_gateways.100baset_hub;html=1;dashed=0;fillColor=#10739E;strokeColor=#ffffff;strokeWidth=2;verticalLabelPosition=bottom;verticalAlign=top;fontFamily=Helvetica;fontSize=36;fontColor=#FFB366" parent="1" vertex="1">
          <mxGeometry x="1137" y="772" width="90" height="45" as="geometry" />
        </mxCell>
        <mxCell id="2145" value="" style="shape=mxgraph.cisco.hubs_and_gateways.100baset_hub;html=1;dashed=0;fillColor=#10739E;strokeColor=#ffffff;strokeWidth=2;verticalLabelPosition=bottom;verticalAlign=top;fontFamily=Helvetica;fontSize=36;fontColor=#FFB366" parent="1" vertex="1">
          <mxGeometry x="1137" y="915" width="90" height="45" as="geometry" />
        </mxCell>
        <mxCell id="2146" value="" style="shape=mxgraph.cisco.hubs_and_gateways.100baset_hub;html=1;dashed=0;fillColor=#10739E;strokeColor=#ffffff;strokeWidth=2;verticalLabelPosition=bottom;verticalAlign=top;fontFamily=Helvetica;fontSize=36;fontColor=#FFB366" parent="1" vertex="1">
          <mxGeometry x="673" y="853" width="90" height="45" as="geometry" />
        </mxCell>
        <mxCell id="2147" value="" style="shape=mxgraph.cisco.hubs_and_gateways.100baset_hub;html=1;dashed=0;fillColor=#10739E;strokeColor=#ffffff;strokeWidth=2;verticalLabelPosition=bottom;verticalAlign=top;fontFamily=Helvetica;fontSize=36;fontColor=#FFB366" parent="1" vertex="1">
          <mxGeometry x="673" y="780" width="90" height="45" as="geometry" />
        </mxCell>
        <mxCell id="2148" value="" style="shape=mxgraph.cisco.hubs_and_gateways.100baset_hub;html=1;dashed=0;fillColor=#10739E;strokeColor=#ffffff;strokeWidth=2;verticalLabelPosition=bottom;verticalAlign=top;fontFamily=Helvetica;fontSize=36;fontColor=#FFB366" parent="1" vertex="1">
          <mxGeometry x="673" y="923" width="90" height="45" as="geometry" />
        </mxCell>
        <mxCell id="2149" value="" style="shape=mxgraph.cisco.misc.access_point;html=1;dashed=0;fillColor=#10739E;strokeColor=#ffffff;strokeWidth=2;verticalLabelPosition=bottom;verticalAlign=top;fontFamily=Helvetica;fontSize=36;fontColor=#FFB366" parent="1" vertex="1">
          <mxGeometry x="817" y="859" width="79" height="34" as="geometry" />
        </mxCell>
        <mxCell id="2150" value="" style="shape=mxgraph.cisco.misc.access_point;html=1;dashed=0;fillColor=#10739E;strokeColor=#ffffff;strokeWidth=2;verticalLabelPosition=bottom;verticalAlign=top;fontFamily=Helvetica;fontSize=36;fontColor=#FFB366" parent="1" vertex="1">
          <mxGeometry x="817" y="933" width="75" height="34" as="geometry" />
        </mxCell>
        <mxCell id="2151" value="" style="shape=mxgraph.cisco.misc.access_point;html=1;dashed=0;fillColor=#10739E;strokeColor=#ffffff;strokeWidth=2;verticalLabelPosition=bottom;verticalAlign=top;fontFamily=Helvetica;fontSize=36;fontColor=#FFB366" parent="1" vertex="1">
          <mxGeometry x="817" y="782" width="75" height="34" as="geometry" />
        </mxCell>
        <mxCell id="2152" value="" style="line;html=1;strokeColor=#23445D;" parent="1" vertex="1">
          <mxGeometry x="53" y="205" width="587" height="10" as="geometry" />
        </mxCell>
        <mxCell id="2153" value="" style="line;html=1;strokeColor=#23445D;" parent="1" vertex="1">
          <mxGeometry x="1250" y="182" width="370" height="10" as="geometry" />
        </mxCell>
        <mxCell id="2154" value="" style="line;html=1;strokeColor=#23445D;" parent="1" vertex="1">
          <mxGeometry x="377" y="340" width="943" height="10" as="geometry" />
        </mxCell>
        <mxCell id="2155" value="" style="edgeStyle=elbowEdgeStyle;elbow=horizontal;endArrow=none;html=1;strokeColor=#23445D;endFill=0;strokeWidth=4;rounded=1" parent="1" edge="1">
          <mxGeometry width="100" height="100" relative="1" as="geometry">
            <mxPoint x="533" y="210" as="sourcePoint" />
            <mxPoint x="532.8333333333335" y="157" as="targetPoint" />
          </mxGeometry>
        </mxCell>
        <mxCell id="2156" value="" style="edgeStyle=elbowEdgeStyle;elbow=horizontal;endArrow=none;html=1;strokeColor=#23445D;endFill=0;strokeWidth=4;rounded=1" parent="1" edge="1">
          <mxGeometry width="100" height="100" relative="1" as="geometry">
            <mxPoint x="460" y="210" as="sourcePoint" />
            <mxPoint x="460.3333333333335" y="157" as="targetPoint" />
          </mxGeometry>
        </mxCell>
        <mxCell id="2157" value="" style="edgeStyle=elbowEdgeStyle;elbow=horizontal;endArrow=none;html=1;strokeColor=#23445D;endFill=0;strokeWidth=4;rounded=1" parent="1" edge="1">
          <mxGeometry width="100" height="100" relative="1" as="geometry">
            <mxPoint x="403" y="209" as="sourcePoint" />
            <mxPoint x="402.8333333333335" y="156.00000000000045" as="targetPoint" />
          </mxGeometry>
        </mxCell>
        <mxCell id="2158" value="" style="edgeStyle=elbowEdgeStyle;elbow=horizontal;endArrow=none;html=1;strokeColor=#23445D;endFill=0;strokeWidth=4;rounded=1" parent="1" edge="1">
          <mxGeometry width="100" height="100" relative="1" as="geometry">
            <mxPoint x="337" y="210" as="sourcePoint" />
            <mxPoint x="337" y="157" as="targetPoint" />
          </mxGeometry>
        </mxCell>
        <mxCell id="2159" value="" style="edgeStyle=elbowEdgeStyle;elbow=horizontal;endArrow=none;html=1;strokeColor=#23445D;endFill=0;strokeWidth=4;rounded=1" parent="1" edge="1">
          <mxGeometry width="100" height="100" relative="1" as="geometry">
            <mxPoint x="267" y="210" as="sourcePoint" />
            <mxPoint x="267" y="156" as="targetPoint" />
          </mxGeometry>
        </mxCell>
        <mxCell id="2160" value="" style="edgeStyle=elbowEdgeStyle;elbow=horizontal;endArrow=none;html=1;strokeColor=#23445D;endFill=0;strokeWidth=4;rounded=1" parent="1" edge="1">
          <mxGeometry width="100" height="100" relative="1" as="geometry">
            <mxPoint x="199" y="210" as="sourcePoint" />
            <mxPoint x="198.66666666666697" y="156.00000000000045" as="targetPoint" />
          </mxGeometry>
        </mxCell>
        <mxCell id="2161" value="" style="edgeStyle=elbowEdgeStyle;elbow=horizontal;endArrow=none;html=1;strokeColor=#23445D;endFill=0;strokeWidth=4;rounded=1" parent="1" target="2096" edge="1">
          <mxGeometry width="100" height="100" relative="1" as="geometry">
            <mxPoint x="96" y="210" as="sourcePoint" />
            <mxPoint x="96.30555555555554" y="156.25" as="targetPoint" />
          </mxGeometry>
        </mxCell>
        <mxCell id="2162" value="" style="edgeStyle=elbowEdgeStyle;elbow=horizontal;endArrow=none;html=1;strokeColor=#23445D;endFill=0;strokeWidth=4;rounded=1;entryX=0.5;entryY=0;entryDx=0;entryDy=0;entryPerimeter=0;" parent="1" edge="1">
          <mxGeometry width="100" height="100" relative="1" as="geometry">
            <mxPoint x="465" y="210" as="sourcePoint" />
            <mxPoint x="465.99999999999955" y="262" as="targetPoint" />
          </mxGeometry>
        </mxCell>
        <mxCell id="2164" value="" style="edgeStyle=elbowEdgeStyle;elbow=horizontal;endArrow=none;html=1;strokeColor=#23445D;endFill=0;strokeWidth=4;rounded=1;exitX=0.5;exitY=1;exitDx=0;exitDy=0;exitPerimeter=0;" parent="1" edge="1" source="V0wdKE8uYw8_8xybmmoC-2271">
          <mxGeometry width="100" height="100" relative="1" as="geometry">
            <mxPoint x="1299" y="134" as="sourcePoint" />
            <mxPoint x="1299.2777777777774" y="187.08333333333348" as="targetPoint" />
          </mxGeometry>
        </mxCell>
        <mxCell id="2165" value="" style="edgeStyle=elbowEdgeStyle;elbow=horizontal;endArrow=none;html=1;strokeColor=#23445D;endFill=0;strokeWidth=4;rounded=1;exitX=0.5;exitY=1;exitDx=0;exitDy=0;exitPerimeter=0;entryX=0.313;entryY=0.717;entryDx=0;entryDy=0;entryPerimeter=0;" parent="1" edge="1" target="2153" source="V0wdKE8uYw8_8xybmmoC-2285">
          <mxGeometry width="100" height="100" relative="1" as="geometry">
            <mxPoint x="1390" y="136" as="sourcePoint" />
            <mxPoint x="1390.2777777777783" y="189.08333333333348" as="targetPoint" />
          </mxGeometry>
        </mxCell>
        <mxCell id="2166" value="" style="edgeStyle=elbowEdgeStyle;elbow=horizontal;endArrow=none;html=1;strokeColor=#23445D;endFill=0;strokeWidth=4;rounded=1" parent="1" edge="1">
          <mxGeometry width="100" height="100" relative="1" as="geometry">
            <mxPoint x="1480" y="136" as="sourcePoint" />
            <mxPoint x="1480.2777777777774" y="185.08333333333348" as="targetPoint" />
          </mxGeometry>
        </mxCell>
        <mxCell id="2167" value="" style="edgeStyle=elbowEdgeStyle;elbow=horizontal;endArrow=none;html=1;strokeColor=#23445D;endFill=0;strokeWidth=4;rounded=1" parent="1" edge="1">
          <mxGeometry width="100" height="100" relative="1" as="geometry">
            <mxPoint x="1591" y="137" as="sourcePoint" />
            <mxPoint x="1591.2777777777774" y="185.08333333333348" as="targetPoint" />
          </mxGeometry>
        </mxCell>
        <mxCell id="2168" value="" style="edgeStyle=elbowEdgeStyle;elbow=horizontal;endArrow=none;html=1;strokeColor=#23445D;endFill=0;strokeWidth=4;rounded=1;exitX=0;exitY=0.5;exitDx=0;exitDy=0;exitPerimeter=0;" parent="1" source="2153" edge="1">
          <mxGeometry width="100" height="100" relative="1" as="geometry">
            <mxPoint x="1235.92" y="205" as="sourcePoint" />
            <mxPoint x="1245" y="259" as="targetPoint" />
            <Array as="points">
              <mxPoint x="1245" y="228.5" />
            </Array>
          </mxGeometry>
        </mxCell>
        <mxCell id="2169" value="" style="edgeStyle=elbowEdgeStyle;elbow=horizontal;endArrow=none;html=1;strokeColor=#23445D;endFill=0;strokeWidth=4;rounded=1" parent="1" source="V0wdKE8uYw8_8xybmmoC-2261" edge="1">
          <mxGeometry width="100" height="100" relative="1" as="geometry">
            <mxPoint x="1244.5" y="289" as="sourcePoint" />
            <mxPoint x="1244.2777777777774" y="345.0833333333335" as="targetPoint" />
          </mxGeometry>
        </mxCell>
        <mxCell id="2170" value="" style="elbow=horizontal;endArrow=none;html=1;strokeColor=#23445D;endFill=0;strokeWidth=4;rounded=1;entryX=0.828;entryY=0.926;entryDx=0;entryDy=0;entryPerimeter=0;" parent="1" source="V0wdKE8uYw8_8xybmmoC-2260" target="2109" edge="1">
          <mxGeometry width="100" height="100" relative="1" as="geometry">
            <mxPoint x="1237.4161451533028" y="259" as="sourcePoint" />
            <mxPoint x="1073.4951456310678" y="186" as="targetPoint" />
          </mxGeometry>
        </mxCell>
        <mxCell id="2171" value="" style="elbow=horizontal;endArrow=none;html=1;strokeColor=#23445D;endFill=0;strokeWidth=4;rounded=1;exitX=0;exitY=0.5;exitDx=0;exitDy=0;exitPerimeter=0;entryX=0.98;entryY=0.5;entryDx=0;entryDy=0;entryPerimeter=0;" parent="1" target="2110" edge="1">
          <mxGeometry width="100" height="100" relative="1" as="geometry">
            <mxPoint x="1220" y="274" as="sourcePoint" />
            <mxPoint x="1100" y="276.1176470588234" as="targetPoint" />
          </mxGeometry>
        </mxCell>
        <mxCell id="2172" style="edgeStyle=none;rounded=1;html=1;strokeColor=#23445D;endArrow=none;endFill=0;strokeWidth=4;exitX=0;exitY=0.5;exitDx=0;exitDy=0;exitPerimeter=0;" parent="1" source="V0wdKE8uYw8_8xybmmoC-2272" target="2114" edge="1">
          <mxGeometry relative="1" as="geometry">
            <mxPoint x="631.0000000000005" y="407.91710945802333" as="sourcePoint" />
          </mxGeometry>
        </mxCell>
        <mxCell id="2173" style="edgeStyle=none;rounded=1;html=1;strokeColor=#23445D;endArrow=none;endFill=0;strokeWidth=4;exitX=0.015;exitY=0.985;exitDx=0;exitDy=0;exitPerimeter=0;" parent="1" source="V0wdKE8uYw8_8xybmmoC-2272" target="2116" edge="1">
          <mxGeometry relative="1" as="geometry">
            <mxPoint x="631.0000000000005" y="430.15999999999985" as="sourcePoint" />
          </mxGeometry>
        </mxCell>
        <mxCell id="2174" style="edgeStyle=none;rounded=1;html=1;strokeColor=#23445D;endArrow=none;endFill=0;strokeWidth=4;entryX=0.232;entryY=0.066;entryDx=0;entryDy=0;entryPerimeter=0;" parent="1" source="V0wdKE8uYw8_8xybmmoC-2272" target="2132" edge="1">
          <mxGeometry relative="1" as="geometry">
            <mxPoint x="695.0000000000005" y="425.9398496240601" as="sourcePoint" />
          </mxGeometry>
        </mxCell>
        <mxCell id="2176" style="edgeStyle=none;rounded=1;html=1;strokeColor=#23445D;endArrow=none;endFill=0;strokeWidth=4;exitX=0.5;exitY=1;exitDx=0;exitDy=0;exitPerimeter=0;" parent="1" target="2117" edge="1">
          <mxGeometry relative="1" as="geometry">
            <mxPoint x="1273" y="421" as="sourcePoint" />
          </mxGeometry>
        </mxCell>
        <mxCell id="2177" style="edgeStyle=none;rounded=1;html=1;strokeColor=#23445D;endArrow=none;endFill=0;strokeWidth=4;exitX=1.053;exitY=0.837;exitDx=0;exitDy=0;exitPerimeter=0;" parent="1" source="V0wdKE8uYw8_8xybmmoC-2258" target="2133" edge="1">
          <mxGeometry relative="1" as="geometry">
            <mxPoint x="1304" y="417.2417061611377" as="sourcePoint" />
          </mxGeometry>
        </mxCell>
        <mxCell id="2178" value="" style="edgeStyle=elbowEdgeStyle;elbow=horizontal;endArrow=none;html=1;strokeColor=#23445D;endFill=0;strokeWidth=4;rounded=1" parent="1" edge="1">
          <mxGeometry width="100" height="100" relative="1" as="geometry">
            <mxPoint x="663" y="345" as="sourcePoint" />
            <mxPoint x="662.8333333333335" y="370" as="targetPoint" />
          </mxGeometry>
        </mxCell>
        <mxCell id="2179" value="" style="edgeStyle=elbowEdgeStyle;elbow=horizontal;endArrow=none;html=1;strokeColor=#23445D;endFill=0;strokeWidth=4;rounded=1;entryX=0.52;entryY=0.019;entryDx=0;entryDy=0;entryPerimeter=0;" parent="1" target="V0wdKE8uYw8_8xybmmoC-2258" edge="1">
          <mxGeometry width="100" height="100" relative="1" as="geometry">
            <mxPoint x="1272" y="345" as="sourcePoint" />
            <mxPoint x="1272" y="369.9999999999998" as="targetPoint" />
          </mxGeometry>
        </mxCell>
        <mxCell id="2180" style="edgeStyle=orthogonalEdgeStyle;rounded=1;html=1;strokeColor=#23445D;endArrow=none;endFill=0;strokeWidth=4" parent="1" source="2114" target="2126" edge="1">
          <mxGeometry relative="1" as="geometry">
            <Array as="points">
              <mxPoint x="193" y="559" />
            </Array>
          </mxGeometry>
        </mxCell>
        <mxCell id="2181" style="edgeStyle=orthogonalEdgeStyle;rounded=1;html=1;strokeColor=#23445D;endArrow=none;endFill=0;strokeWidth=4" parent="1" source="2114" target="2128" edge="1">
          <mxGeometry relative="1" as="geometry">
            <Array as="points">
              <mxPoint x="193" y="629" />
            </Array>
          </mxGeometry>
        </mxCell>
        <mxCell id="2182" style="edgeStyle=orthogonalEdgeStyle;rounded=1;html=1;strokeColor=#23445D;endArrow=none;endFill=0;strokeWidth=4" parent="1" source="2114" target="2129" edge="1">
          <mxGeometry relative="1" as="geometry">
            <Array as="points">
              <mxPoint x="193" y="709" />
            </Array>
          </mxGeometry>
        </mxCell>
        <mxCell id="2183" style="edgeStyle=orthogonalEdgeStyle;rounded=1;html=1;strokeColor=#23445D;endArrow=none;endFill=0;strokeWidth=4" parent="1" source="2114" target="2130" edge="1">
          <mxGeometry relative="1" as="geometry">
            <Array as="points">
              <mxPoint x="193" y="779" />
            </Array>
          </mxGeometry>
        </mxCell>
        <mxCell id="2184" style="edgeStyle=orthogonalEdgeStyle;rounded=1;html=1;strokeColor=#23445D;endArrow=none;endFill=0;strokeWidth=4" parent="1" source="2114" target="2120" edge="1">
          <mxGeometry relative="1" as="geometry">
            <Array as="points">
              <mxPoint x="193" y="572" />
            </Array>
          </mxGeometry>
        </mxCell>
        <mxCell id="2185" style="edgeStyle=orthogonalEdgeStyle;rounded=1;html=1;strokeColor=#23445D;endArrow=none;endFill=0;strokeWidth=4" parent="1" source="2114" target="2121" edge="1">
          <mxGeometry relative="1" as="geometry">
            <Array as="points">
              <mxPoint x="193" y="640" />
            </Array>
          </mxGeometry>
        </mxCell>
        <mxCell id="2186" style="edgeStyle=orthogonalEdgeStyle;rounded=1;html=1;strokeColor=#23445D;endArrow=none;endFill=0;strokeWidth=4" parent="1" source="2114" target="2123" edge="1">
          <mxGeometry relative="1" as="geometry">
            <Array as="points">
              <mxPoint x="193" y="722" />
            </Array>
          </mxGeometry>
        </mxCell>
        <mxCell id="2187" style="edgeStyle=orthogonalEdgeStyle;rounded=1;html=1;strokeColor=#23445D;endArrow=none;endFill=0;strokeWidth=4" parent="1" source="2114" target="2125" edge="1">
          <mxGeometry relative="1" as="geometry">
            <Array as="points">
              <mxPoint x="193" y="799" />
            </Array>
          </mxGeometry>
        </mxCell>
        <mxCell id="2189" style="rounded=1;html=1;strokeColor=#23445D;endArrow=none;endFill=0;strokeWidth=4" parent="1" source="2116" target="2119" edge="1">
          <mxGeometry relative="1" as="geometry" />
        </mxCell>
        <mxCell id="2190" style="rounded=1;html=1;strokeColor=#23445D;endArrow=none;endFill=0;strokeWidth=4" parent="1" source="2116" target="2118" edge="1">
          <mxGeometry relative="1" as="geometry" />
        </mxCell>
        <mxCell id="2191" value="" style="line;html=1;strokeColor=#23445D;" parent="1" vertex="1">
          <mxGeometry x="355" y="925" width="245" height="10" as="geometry" />
        </mxCell>
        <mxCell id="2192" style="rounded=1;html=1;entryX=0.224;entryY=0.5;entryPerimeter=0;strokeColor=#23445D;endArrow=none;endFill=0;strokeWidth=4" parent="1" source="2118" target="2191" edge="1">
          <mxGeometry relative="1" as="geometry" />
        </mxCell>
        <mxCell id="2193" style="edgeStyle=orthogonalEdgeStyle;rounded=1;html=1;entryX=0.714;entryY=0.5;entryPerimeter=0;strokeColor=#23445D;endArrow=none;endFill=0;strokeWidth=4" parent="1" source="2119" edge="1">
          <mxGeometry relative="1" as="geometry">
            <mxPoint x="533" y="837" as="sourcePoint" />
            <mxPoint x="533.666666666667" y="930.3333333333335" as="targetPoint" />
            <Array as="points">
              <mxPoint x="534" y="917" />
              <mxPoint x="533" y="917" />
            </Array>
          </mxGeometry>
        </mxCell>
        <mxCell id="2194" style="edgeStyle=orthogonalEdgeStyle;rounded=1;html=1;strokeColor=#23445D;endArrow=none;endFill=0;strokeWidth=4" parent="1" source="2117" target="2140" edge="1">
          <mxGeometry relative="1" as="geometry">
            <Array as="points">
              <mxPoint x="1260" y="566" />
            </Array>
          </mxGeometry>
        </mxCell>
        <mxCell id="2195" style="edgeStyle=orthogonalEdgeStyle;rounded=1;html=1;strokeColor=#23445D;endArrow=none;endFill=0;strokeWidth=4" parent="1" source="2117" target="2142" edge="1">
          <mxGeometry relative="1" as="geometry">
            <Array as="points">
              <mxPoint x="1260" y="636" />
            </Array>
          </mxGeometry>
        </mxCell>
        <mxCell id="2196" style="edgeStyle=orthogonalEdgeStyle;rounded=1;html=1;strokeColor=#23445D;endArrow=none;endFill=0;strokeWidth=4" parent="1" source="2117" target="2143" edge="1">
          <mxGeometry relative="1" as="geometry">
            <Array as="points">
              <mxPoint x="1260" y="706" />
            </Array>
          </mxGeometry>
        </mxCell>
        <mxCell id="2197" style="edgeStyle=orthogonalEdgeStyle;rounded=1;html=1;strokeColor=#23445D;endArrow=none;endFill=0;strokeWidth=4" parent="1" source="2117" target="2144" edge="1">
          <mxGeometry relative="1" as="geometry">
            <Array as="points">
              <mxPoint x="1260" y="786" />
            </Array>
          </mxGeometry>
        </mxCell>
        <mxCell id="2198" style="edgeStyle=orthogonalEdgeStyle;rounded=1;html=1;strokeColor=#23445D;endArrow=none;endFill=0;strokeWidth=4" parent="1" source="2117" target="2141" edge="1">
          <mxGeometry relative="1" as="geometry">
            <Array as="points">
              <mxPoint x="1260" y="856" />
            </Array>
          </mxGeometry>
        </mxCell>
        <mxCell id="2199" style="edgeStyle=orthogonalEdgeStyle;rounded=1;html=1;strokeColor=#23445D;endArrow=none;endFill=0;strokeWidth=4" parent="1" source="2117" target="2145" edge="1">
          <mxGeometry relative="1" as="geometry">
            <Array as="points">
              <mxPoint x="1260" y="926" />
            </Array>
          </mxGeometry>
        </mxCell>
        <mxCell id="2200" style="rounded=1;html=1;strokeColor=#23445D;endArrow=none;endFill=0;strokeWidth=4" parent="1" source="2132" target="2134" edge="1">
          <mxGeometry relative="1" as="geometry" />
        </mxCell>
        <mxCell id="2201" style="rounded=1;html=1;strokeColor=#23445D;endArrow=none;endFill=0;strokeWidth=4" parent="1" source="2133" target="2135" edge="1">
          <mxGeometry relative="1" as="geometry" />
        </mxCell>
        <mxCell id="2202" style="rounded=1;html=1;strokeColor=#23445D;endArrow=none;endFill=0;strokeWidth=4" parent="1" source="2134" target="2136" edge="1">
          <mxGeometry relative="1" as="geometry" />
        </mxCell>
        <mxCell id="2203" style="edgeStyle=orthogonalEdgeStyle;rounded=1;html=1;strokeColor=#23445D;endArrow=none;endFill=0;strokeWidth=4" parent="1" source="2136" target="2147" edge="1">
          <mxGeometry relative="1" as="geometry">
            <Array as="points">
              <mxPoint x="796" y="799" />
            </Array>
          </mxGeometry>
        </mxCell>
        <mxCell id="2204" style="edgeStyle=orthogonalEdgeStyle;rounded=1;html=1;strokeColor=#23445D;endArrow=none;endFill=0;strokeWidth=4" parent="1" source="2136" target="2146" edge="1">
          <mxGeometry relative="1" as="geometry">
            <Array as="points">
              <mxPoint x="796" y="869" />
            </Array>
          </mxGeometry>
        </mxCell>
        <mxCell id="2205" style="edgeStyle=orthogonalEdgeStyle;rounded=1;html=1;strokeColor=#23445D;endArrow=none;endFill=0;strokeWidth=4" parent="1" source="2136" target="2148" edge="1">
          <mxGeometry relative="1" as="geometry">
            <Array as="points">
              <mxPoint x="796" y="939" />
            </Array>
          </mxGeometry>
        </mxCell>
        <mxCell id="2206" style="edgeStyle=orthogonalEdgeStyle;rounded=1;html=1;strokeColor=#23445D;endArrow=none;endFill=0;strokeWidth=4" parent="1" source="2136" target="2151" edge="1">
          <mxGeometry relative="1" as="geometry">
            <Array as="points">
              <mxPoint x="796" y="799" />
            </Array>
          </mxGeometry>
        </mxCell>
        <mxCell id="2207" style="edgeStyle=orthogonalEdgeStyle;rounded=1;html=1;strokeColor=#23445D;endArrow=none;endFill=0;strokeWidth=4" parent="1" source="2136" target="2149" edge="1">
          <mxGeometry relative="1" as="geometry">
            <Array as="points">
              <mxPoint x="796" y="879" />
            </Array>
          </mxGeometry>
        </mxCell>
        <mxCell id="2208" style="edgeStyle=orthogonalEdgeStyle;rounded=1;html=1;strokeColor=#23445D;endArrow=none;endFill=0;strokeWidth=4" parent="1" source="2136" target="2150" edge="1">
          <mxGeometry relative="1" as="geometry">
            <Array as="points">
              <mxPoint x="796" y="950" />
            </Array>
          </mxGeometry>
        </mxCell>
        <mxCell id="2209" style="edgeStyle=orthogonalEdgeStyle;rounded=1;html=1;strokeColor=#23445D;endArrow=none;endFill=0;strokeWidth=4" parent="1" source="2114" target="2127" edge="1">
          <mxGeometry relative="1" as="geometry">
            <Array as="points">
              <mxPoint x="193" y="859" />
            </Array>
          </mxGeometry>
        </mxCell>
        <mxCell id="2210" style="edgeStyle=orthogonalEdgeStyle;rounded=1;html=1;strokeColor=#23445D;endArrow=none;endFill=0;strokeWidth=4" parent="1" source="2114" target="2139" edge="1">
          <mxGeometry relative="1" as="geometry">
            <Array as="points">
              <mxPoint x="193" y="929" />
            </Array>
          </mxGeometry>
        </mxCell>
        <mxCell id="2211" style="edgeStyle=orthogonalEdgeStyle;rounded=1;html=1;strokeColor=#23445D;endArrow=none;endFill=0;strokeWidth=4" parent="1" source="2114" target="2122" edge="1">
          <mxGeometry relative="1" as="geometry">
            <Array as="points">
              <mxPoint x="193" y="869" />
            </Array>
          </mxGeometry>
        </mxCell>
        <mxCell id="2212" style="edgeStyle=orthogonalEdgeStyle;rounded=1;html=1;strokeColor=#23445D;endArrow=none;endFill=0;strokeWidth=4" parent="1" source="2114" target="2124" edge="1">
          <mxGeometry relative="1" as="geometry">
            <Array as="points">
              <mxPoint x="193" y="947" />
            </Array>
          </mxGeometry>
        </mxCell>
        <mxCell id="2213" value="" style="shape=mxgraph.cisco.misc.access_point;html=1;dashed=0;fillColor=#10739E;strokeColor=#ffffff;strokeWidth=2;verticalLabelPosition=bottom;verticalAlign=top;fontFamily=Helvetica;fontSize=36;fontColor=#FFB366" parent="1" vertex="1">
          <mxGeometry x="1517" y="865" width="79" height="34" as="geometry" />
        </mxCell>
        <mxCell id="2214" value="" style="shape=mxgraph.cisco.misc.access_point;html=1;dashed=0;fillColor=#10739E;strokeColor=#ffffff;strokeWidth=2;verticalLabelPosition=bottom;verticalAlign=top;fontFamily=Helvetica;fontSize=36;fontColor=#FFB366" parent="1" vertex="1">
          <mxGeometry x="1517" y="939" width="75" height="34" as="geometry" />
        </mxCell>
        <mxCell id="2215" value="" style="shape=mxgraph.cisco.misc.access_point;html=1;dashed=0;fillColor=#10739E;strokeColor=#ffffff;strokeWidth=2;verticalLabelPosition=bottom;verticalAlign=top;fontFamily=Helvetica;fontSize=36;fontColor=#FFB366" parent="1" vertex="1">
          <mxGeometry x="1517" y="788" width="75" height="34" as="geometry" />
        </mxCell>
        <mxCell id="2216" value="" style="shape=mxgraph.cisco.hubs_and_gateways.100baset_hub;html=1;dashed=0;fillColor=#10739E;strokeColor=#ffffff;strokeWidth=2;verticalLabelPosition=bottom;verticalAlign=top;fontFamily=Helvetica;fontSize=36;fontColor=#FFB366" parent="1" vertex="1">
          <mxGeometry x="1371" y="858" width="90" height="45" as="geometry" />
        </mxCell>
        <mxCell id="2217" value="" style="shape=mxgraph.cisco.hubs_and_gateways.100baset_hub;html=1;dashed=0;fillColor=#10739E;strokeColor=#ffffff;strokeWidth=2;verticalLabelPosition=bottom;verticalAlign=top;fontFamily=Helvetica;fontSize=36;fontColor=#FFB366" parent="1" vertex="1">
          <mxGeometry x="1371" y="785" width="90" height="45" as="geometry" />
        </mxCell>
        <mxCell id="2218" value="" style="shape=mxgraph.cisco.hubs_and_gateways.100baset_hub;html=1;dashed=0;fillColor=#10739E;strokeColor=#ffffff;strokeWidth=2;verticalLabelPosition=bottom;verticalAlign=top;fontFamily=Helvetica;fontSize=36;fontColor=#FFB366" parent="1" vertex="1">
          <mxGeometry x="1371" y="928" width="90" height="45" as="geometry" />
        </mxCell>
        <mxCell id="2219" style="edgeStyle=orthogonalEdgeStyle;rounded=1;html=1;strokeColor=#23445D;endArrow=none;endFill=0;strokeWidth=4" parent="1" source="2135" target="2137" edge="1">
          <mxGeometry relative="1" as="geometry" />
        </mxCell>
        <mxCell id="2220" style="edgeStyle=orthogonalEdgeStyle;rounded=1;html=1;strokeColor=#23445D;endArrow=none;endFill=0;strokeWidth=4" parent="1" source="2137" target="2217" edge="1">
          <mxGeometry relative="1" as="geometry">
            <Array as="points">
              <mxPoint x="1482" y="810" />
            </Array>
          </mxGeometry>
        </mxCell>
        <mxCell id="2221" style="edgeStyle=orthogonalEdgeStyle;rounded=1;html=1;strokeColor=#23445D;endArrow=none;endFill=0;strokeWidth=4" parent="1" source="2137" target="2216" edge="1">
          <mxGeometry relative="1" as="geometry">
            <Array as="points">
              <mxPoint x="1482" y="880" />
            </Array>
          </mxGeometry>
        </mxCell>
        <mxCell id="2222" style="edgeStyle=orthogonalEdgeStyle;rounded=1;html=1;strokeColor=#23445D;endArrow=none;endFill=0;strokeWidth=4" parent="1" source="2137" target="2218" edge="1">
          <mxGeometry relative="1" as="geometry">
            <Array as="points">
              <mxPoint x="1482" y="950" />
            </Array>
          </mxGeometry>
        </mxCell>
        <mxCell id="2223" style="edgeStyle=orthogonalEdgeStyle;rounded=1;html=1;strokeColor=#23445D;endArrow=none;endFill=0;strokeWidth=4" parent="1" source="2137" target="2215" edge="1">
          <mxGeometry relative="1" as="geometry">
            <Array as="points">
              <mxPoint x="1482" y="800" />
            </Array>
          </mxGeometry>
        </mxCell>
        <mxCell id="2224" style="edgeStyle=orthogonalEdgeStyle;rounded=1;html=1;strokeColor=#23445D;endArrow=none;endFill=0;strokeWidth=4" parent="1" source="2137" target="2213" edge="1">
          <mxGeometry relative="1" as="geometry">
            <Array as="points">
              <mxPoint x="1482" y="870" />
            </Array>
          </mxGeometry>
        </mxCell>
        <mxCell id="2225" style="edgeStyle=orthogonalEdgeStyle;rounded=1;html=1;strokeColor=#23445D;endArrow=none;endFill=0;strokeWidth=4" parent="1" source="2137" target="2214" edge="1">
          <mxGeometry relative="1" as="geometry">
            <Array as="points">
              <mxPoint x="1482" y="950" />
            </Array>
          </mxGeometry>
        </mxCell>
        <mxCell id="2226" value="&lt;font color=&quot;#23445d&quot;&gt;Management and core servers&lt;/font&gt;" style="rounded=1;whiteSpace=wrap;html=1;strokeColor=none;fillColor=none;fontSize=14;fontColor=#742B21;align=center;fontStyle=1" parent="1" vertex="1">
          <mxGeometry x="263" y="42" width="225" height="19" as="geometry" />
        </mxCell>
        <mxCell id="2227" value="&lt;font color=&quot;#23445d&quot;&gt;External servers&lt;/font&gt;" style="rounded=1;whiteSpace=wrap;html=1;strokeColor=none;fillColor=none;fontSize=14;fontColor=#742B21;align=center;fontStyle=1" parent="1" vertex="1">
          <mxGeometry x="1355" y="17" width="143" height="19" as="geometry" />
        </mxCell>
        <mxCell id="2228" value="&lt;font color=&quot;#23445d&quot;&gt;WAN&lt;/font&gt;" style="rounded=1;whiteSpace=wrap;html=1;strokeColor=none;fillColor=none;fontSize=14;fontColor=#742B21;align=center;fontStyle=1" parent="1" vertex="1">
          <mxGeometry x="1447" y="434" width="73" height="19" as="geometry" />
        </mxCell>
        <mxCell id="2229" value="Access 4" style="rounded=1;whiteSpace=wrap;html=1;strokeColor=none;fillColor=none;fontSize=14;fontColor=#23445D;align=center;fontStyle=1" parent="1" vertex="1">
          <mxGeometry x="1436" y="991" width="98" height="19" as="geometry" />
        </mxCell>
        <mxCell id="2230" value="Access 2" style="rounded=1;whiteSpace=wrap;html=1;strokeColor=none;fillColor=none;fontSize=14;fontColor=#23445D;align=center;fontStyle=1" parent="1" vertex="1">
          <mxGeometry x="745" y="1113" width="96" height="19" as="geometry" />
        </mxCell>
        <mxCell id="2231" value="Access 3" style="rounded=1;whiteSpace=wrap;html=1;strokeColor=none;fillColor=none;fontSize=14;fontColor=#23445D;align=center;fontStyle=1" parent="1" vertex="1">
          <mxGeometry x="1167" y="1112" width="78" height="20" as="geometry" />
        </mxCell>
        <mxCell id="2232" value="&lt;font color=&quot;#23445d&quot;&gt;Expansion&lt;/font&gt;" style="rounded=1;whiteSpace=wrap;html=1;strokeColor=none;fillColor=none;fontSize=14;fontColor=#742B21;align=center;fontStyle=1" parent="1" vertex="1">
          <mxGeometry x="417" y="953" width="109" height="19" as="geometry" />
        </mxCell>
        <mxCell id="2233" value="Access 1" style="rounded=1;whiteSpace=wrap;html=1;strokeColor=none;fillColor=none;fontSize=14;fontColor=#23445D;align=center;fontStyle=1" parent="1" vertex="1">
          <mxGeometry x="142" y="1130" width="93" height="19" as="geometry" />
        </mxCell>
        <mxCell id="2234" value="" style="shape=mxgraph.cisco.hubs_and_gateways.100baset_hub;html=1;dashed=0;fillColor=#10739E;strokeColor=#ffffff;strokeWidth=2;verticalLabelPosition=bottom;verticalAlign=top;fontFamily=Helvetica;fontSize=36;fontColor=#FFB366" parent="1" vertex="1">
          <mxGeometry x="59" y="1071" width="90" height="45" as="geometry" />
        </mxCell>
        <mxCell id="2235" value="" style="shape=mxgraph.cisco.hubs_and_gateways.100baset_hub;html=1;dashed=0;fillColor=#10739E;strokeColor=#ffffff;strokeWidth=2;verticalLabelPosition=bottom;verticalAlign=top;fontFamily=Helvetica;fontSize=36;fontColor=#FFB366" parent="1" vertex="1">
          <mxGeometry x="59" y="998" width="90" height="45" as="geometry" />
        </mxCell>
        <mxCell id="2236" value="" style="shape=mxgraph.cisco.misc.access_point;html=1;dashed=0;fillColor=#10739E;strokeColor=#ffffff;strokeWidth=2;verticalLabelPosition=bottom;verticalAlign=top;fontFamily=Helvetica;fontSize=36;fontColor=#FFB366" parent="1" vertex="1">
          <mxGeometry x="223" y="1000" width="75" height="34" as="geometry" />
        </mxCell>
        <mxCell id="2237" value="" style="shape=mxgraph.cisco.misc.access_point;html=1;dashed=0;fillColor=#10739E;strokeColor=#ffffff;strokeWidth=2;verticalLabelPosition=bottom;verticalAlign=top;fontFamily=Helvetica;fontSize=36;fontColor=#FFB366" parent="1" vertex="1">
          <mxGeometry x="223" y="1078" width="75" height="34" as="geometry" />
        </mxCell>
        <mxCell id="2238" style="edgeStyle=orthogonalEdgeStyle;rounded=1;html=1;endArrow=none;endFill=0;strokeColor=#23445D;strokeWidth=4;fontSize=14;fontColor=#990000" parent="1" source="2114" target="2237" edge="1">
          <mxGeometry relative="1" as="geometry">
            <Array as="points">
              <mxPoint x="193" y="1095" />
            </Array>
          </mxGeometry>
        </mxCell>
        <mxCell id="2239" style="edgeStyle=orthogonalEdgeStyle;rounded=1;html=1;endArrow=none;endFill=0;strokeColor=#23445D;strokeWidth=4;fontSize=14;fontColor=#990000" parent="1" source="2114" target="2236" edge="1">
          <mxGeometry relative="1" as="geometry">
            <Array as="points">
              <mxPoint x="193" y="1017" />
            </Array>
          </mxGeometry>
        </mxCell>
        <mxCell id="2240" style="edgeStyle=orthogonalEdgeStyle;rounded=1;html=1;endArrow=none;endFill=0;strokeColor=#23445D;strokeWidth=4;fontSize=14;fontColor=#990000" parent="1" source="2114" target="2235" edge="1">
          <mxGeometry relative="1" as="geometry">
            <Array as="points">
              <mxPoint x="193" y="1010" />
            </Array>
          </mxGeometry>
        </mxCell>
        <mxCell id="2241" style="edgeStyle=orthogonalEdgeStyle;rounded=1;html=1;endArrow=none;endFill=0;strokeColor=#23445D;strokeWidth=4;fontSize=14;fontColor=#990000" parent="1" source="2114" target="2234" edge="1">
          <mxGeometry relative="1" as="geometry">
            <Array as="points">
              <mxPoint x="193" y="1080" />
            </Array>
          </mxGeometry>
        </mxCell>
        <mxCell id="2242" value="" style="shape=mxgraph.cisco.switches.workgroup_switch;html=1;dashed=0;fillColor=#10739E;strokeColor=#ffffff;strokeWidth=2;verticalLabelPosition=bottom;verticalAlign=top;fontFamily=Helvetica;fontSize=36;fontColor=#FFB366" parent="1" vertex="1">
          <mxGeometry x="421" y="782" width="101" height="50" as="geometry" />
        </mxCell>
        <mxCell id="2243" style="rounded=1;html=1;entryX=0.224;entryY=0.5;entryPerimeter=0;strokeColor=#23445D;endArrow=none;endFill=0;strokeWidth=4" parent="1" source="2242" edge="1">
          <mxGeometry relative="1" as="geometry">
            <mxPoint x="472.5606936416185" y="746.2427745664738" as="sourcePoint" />
            <mxPoint x="470.8265895953755" y="930.057803468208" as="targetPoint" />
          </mxGeometry>
        </mxCell>
        <mxCell id="2244" style="rounded=1;html=1;endArrow=none;endFill=0;strokeColor=#23445D;strokeWidth=4;fontSize=14;fontColor=#990000" parent="1" source="2116" target="2242" edge="1">
          <mxGeometry relative="1" as="geometry" />
        </mxCell>
        <mxCell id="2245" value="" style="shape=mxgraph.cisco.hubs_and_gateways.100baset_hub;html=1;dashed=0;fillColor=#10739E;strokeColor=#ffffff;strokeWidth=2;verticalLabelPosition=bottom;verticalAlign=top;fontFamily=Helvetica;fontSize=36;fontColor=#FFB366" parent="1" vertex="1">
          <mxGeometry x="672" y="991" width="90" height="45" as="geometry" />
        </mxCell>
        <mxCell id="2246" value="" style="shape=mxgraph.cisco.hubs_and_gateways.100baset_hub;html=1;dashed=0;fillColor=#10739E;strokeColor=#ffffff;strokeWidth=2;verticalLabelPosition=bottom;verticalAlign=top;fontFamily=Helvetica;fontSize=36;fontColor=#FFB366" parent="1" vertex="1">
          <mxGeometry x="672" y="1061" width="90" height="45" as="geometry" />
        </mxCell>
        <mxCell id="2247" value="" style="shape=mxgraph.cisco.misc.access_point;html=1;dashed=0;fillColor=#10739E;strokeColor=#ffffff;strokeWidth=2;verticalLabelPosition=bottom;verticalAlign=top;fontFamily=Helvetica;fontSize=36;fontColor=#FFB366" parent="1" vertex="1">
          <mxGeometry x="813" y="991" width="79" height="34" as="geometry" />
        </mxCell>
        <mxCell id="2248" value="" style="shape=mxgraph.cisco.misc.access_point;html=1;dashed=0;fillColor=#10739E;strokeColor=#ffffff;strokeWidth=2;verticalLabelPosition=bottom;verticalAlign=top;fontFamily=Helvetica;fontSize=36;fontColor=#FFB366" parent="1" vertex="1">
          <mxGeometry x="813" y="1065" width="75" height="34" as="geometry" />
        </mxCell>
        <mxCell id="2249" style="edgeStyle=orthogonalEdgeStyle;rounded=1;html=1;endArrow=none;endFill=0;strokeColor=#23445D;strokeWidth=4;fontSize=14;fontColor=#990000" parent="1" source="2136" target="2247" edge="1">
          <mxGeometry relative="1" as="geometry">
            <Array as="points">
              <mxPoint x="795" y="1008" />
            </Array>
          </mxGeometry>
        </mxCell>
        <mxCell id="2250" style="edgeStyle=orthogonalEdgeStyle;rounded=1;html=1;endArrow=none;endFill=0;strokeColor=#23445D;strokeWidth=4;fontSize=14;fontColor=#990000" parent="1" source="2136" target="2248" edge="1">
          <mxGeometry relative="1" as="geometry">
            <Array as="points">
              <mxPoint x="795" y="1082" />
            </Array>
          </mxGeometry>
        </mxCell>
        <mxCell id="2251" style="edgeStyle=orthogonalEdgeStyle;rounded=1;html=1;endArrow=none;endFill=0;strokeColor=#23445D;strokeWidth=4;fontSize=14;fontColor=#990000" parent="1" source="2136" target="2245" edge="1">
          <mxGeometry relative="1" as="geometry">
            <Array as="points">
              <mxPoint x="795" y="1000" />
            </Array>
          </mxGeometry>
        </mxCell>
        <mxCell id="2252" style="edgeStyle=orthogonalEdgeStyle;rounded=1;html=1;endArrow=none;endFill=0;strokeColor=#23445D;strokeWidth=4;fontSize=14;fontColor=#990000" parent="1" source="2136" target="2246" edge="1">
          <mxGeometry relative="1" as="geometry">
            <Array as="points">
              <mxPoint x="795" y="1070" />
            </Array>
          </mxGeometry>
        </mxCell>
        <mxCell id="2253" value="" style="shape=mxgraph.cisco.hubs_and_gateways.100baset_hub;html=1;dashed=0;fillColor=#10739E;strokeColor=#ffffff;strokeWidth=2;verticalLabelPosition=bottom;verticalAlign=top;fontFamily=Helvetica;fontSize=36;fontColor=#FFB366" parent="1" vertex="1">
          <mxGeometry x="1137" y="984" width="90" height="45" as="geometry" />
        </mxCell>
        <mxCell id="2254" value="" style="shape=mxgraph.cisco.hubs_and_gateways.100baset_hub;html=1;dashed=0;fillColor=#10739E;strokeColor=#ffffff;strokeWidth=2;verticalLabelPosition=bottom;verticalAlign=top;fontFamily=Helvetica;fontSize=36;fontColor=#FFB366" parent="1" vertex="1">
          <mxGeometry x="1137" y="1054" width="90" height="45" as="geometry" />
        </mxCell>
        <mxCell id="2255" style="edgeStyle=orthogonalEdgeStyle;rounded=1;html=1;endArrow=none;endFill=0;strokeColor=#23445D;strokeWidth=4;fontSize=14;fontColor=#990000" parent="1" source="2117" target="2253" edge="1">
          <mxGeometry relative="1" as="geometry">
            <Array as="points">
              <mxPoint x="1260" y="1000" />
            </Array>
          </mxGeometry>
        </mxCell>
        <mxCell id="2256" style="edgeStyle=orthogonalEdgeStyle;rounded=1;html=1;endArrow=none;endFill=0;strokeColor=#23445D;strokeWidth=4;fontSize=14;fontColor=#990000" parent="1" source="2117" target="2254" edge="1">
          <mxGeometry relative="1" as="geometry">
            <Array as="points">
              <mxPoint x="1260" y="1070" />
            </Array>
          </mxGeometry>
        </mxCell>
        <mxCell id="2257" style="edgeStyle=orthogonalEdgeStyle;curved=1;rounded=0;jumpStyle=none;html=1;exitX=0.75;exitY=0;entryX=0.75;entryY=0;shadow=0;labelBackgroundColor=#ffffff;startArrow=none;startFill=0;endArrow=none;endFill=0;endSize=10;jettySize=auto;orthogonalLoop=1;strokeColor=#23445D;strokeWidth=2;fillColor=#F08705;fontFamily=Helvetica;fontSize=25;fontColor=#23445D;align=left;" parent="1" source="2087" target="2087" edge="1">
          <mxGeometry relative="1" as="geometry" />
        </mxCell>
        <mxCell id="V0wdKE8uYw8_8xybmmoC-2258" value="" style="points=[[0.03,0.36,0],[0.18,0,0],[0.5,0.34,0],[0.82,0,0],[0.97,0.36,0],[1,0.67,0],[0.975,0.975,0],[0.5,1,0],[0.025,0.975,0],[0,0.67,0]];verticalLabelPosition=bottom;sketch=0;html=1;verticalAlign=top;aspect=fixed;align=center;pointerEvents=1;shape=mxgraph.cisco19.wireless_access_point;fillColor=#005073;strokeColor=none;" vertex="1" parent="1">
          <mxGeometry x="1250" y="370" width="50" height="50" as="geometry" />
        </mxCell>
        <mxCell id="V0wdKE8uYw8_8xybmmoC-2262" value="" style="sketch=0;points=[[0.015,0.015,0],[0.985,0.015,0],[0.985,0.985,0],[0.015,0.985,0],[0.25,0,0],[0.5,0,0],[0.75,0,0],[1,0.25,0],[1,0.5,0],[1,0.75,0],[0.75,1,0],[0.5,1,0],[0.25,1,0],[0,0.75,0],[0,0.5,0],[0,0.25,0]];verticalLabelPosition=bottom;html=1;verticalAlign=top;aspect=fixed;align=center;pointerEvents=1;shape=mxgraph.cisco19.rect;prIcon=next_generation_intrusion_prevention_system;fillColor=#FAFAFA;strokeColor=#005073;" vertex="1" parent="1">
          <mxGeometry x="1260" y="239" width="50" height="50" as="geometry" />
        </mxCell>
        <mxCell id="V0wdKE8uYw8_8xybmmoC-2263" value="" style="sketch=0;points=[[0.015,0.015,0],[0.985,0.015,0],[0.985,0.985,0],[0.015,0.985,0],[0.25,0,0],[0.5,0,0],[0.75,0,0],[1,0.25,0],[1,0.5,0],[1,0.75,0],[0.75,1,0],[0.5,1,0],[0.25,1,0],[0,0.75,0],[0,0.5,0],[0,0.25,0]];verticalLabelPosition=bottom;html=1;verticalAlign=top;aspect=fixed;align=center;pointerEvents=1;shape=mxgraph.cisco19.rect;prIcon=access_control_and_trustsec;fillColor=#FAFAFA;strokeColor=#005073;" vertex="1" parent="1">
          <mxGeometry x="1260" y="291" width="50" height="50" as="geometry" />
        </mxCell>
        <mxCell id="V0wdKE8uYw8_8xybmmoC-2264" value="" style="sketch=0;points=[[0.015,0.015,0],[0.985,0.015,0],[0.985,0.985,0],[0.015,0.985,0],[0.25,0,0],[0.5,0,0],[0.75,0,0],[1,0.25,0],[1,0.5,0],[1,0.75,0],[0.75,1,0],[0.5,1,0],[0.25,1,0],[0,0.75,0],[0,0.5,0],[0,0.25,0]];verticalLabelPosition=bottom;html=1;verticalAlign=top;aspect=fixed;align=center;pointerEvents=1;shape=mxgraph.cisco19.rect;prIcon=load_balancer;fillColor=#FAFAFA;strokeColor=#005073;" vertex="1" parent="1">
          <mxGeometry x="1241" y="160" width="64" height="50" as="geometry" />
        </mxCell>
        <mxCell id="V0wdKE8uYw8_8xybmmoC-2265" value="" style="edgeStyle=elbowEdgeStyle;elbow=horizontal;endArrow=none;html=1;strokeColor=#23445D;endFill=0;strokeWidth=4;rounded=1" edge="1" parent="1" target="V0wdKE8uYw8_8xybmmoC-2261">
          <mxGeometry width="100" height="100" relative="1" as="geometry">
            <mxPoint x="1244.5" y="289" as="sourcePoint" />
            <mxPoint x="1244.2777777777774" y="345.0833333333335" as="targetPoint" />
          </mxGeometry>
        </mxCell>
        <mxCell id="V0wdKE8uYw8_8xybmmoC-2261" value="" style="sketch=0;points=[[0.5,0,0],[1,0.5,0],[0.5,1,0],[0,0.5,0],[0.145,0.145,0],[0.8555,0.145,0],[0.855,0.8555,0],[0.145,0.855,0]];verticalLabelPosition=bottom;html=1;verticalAlign=top;aspect=fixed;align=center;pointerEvents=1;shape=mxgraph.cisco19.rect;prIcon=router_with_firewall;fillColor=#FAFAFA;strokeColor=#005073;" vertex="1" parent="1">
          <mxGeometry x="1209" y="292" width="50" height="50" as="geometry" />
        </mxCell>
        <mxCell id="V0wdKE8uYw8_8xybmmoC-2266" value="" style="elbow=horizontal;endArrow=none;html=1;strokeColor=#23445D;endFill=0;strokeWidth=4;rounded=1;entryX=0.828;entryY=0.926;entryDx=0;entryDy=0;entryPerimeter=0;" edge="1" parent="1" target="V0wdKE8uYw8_8xybmmoC-2260">
          <mxGeometry width="100" height="100" relative="1" as="geometry">
            <mxPoint x="1237.4161451533028" y="259" as="sourcePoint" />
            <mxPoint x="981" y="98" as="targetPoint" />
          </mxGeometry>
        </mxCell>
        <mxCell id="V0wdKE8uYw8_8xybmmoC-2260" value="" style="sketch=0;points=[[0.5,0,0],[1,0.5,0],[0.5,1,0],[0,0.5,0],[0.145,0.145,0],[0.8555,0.145,0],[0.855,0.8555,0],[0.145,0.855,0]];verticalLabelPosition=bottom;html=1;verticalAlign=top;aspect=fixed;align=center;pointerEvents=1;shape=mxgraph.cisco19.rect;prIcon=secure_router;fillColor=#FAFAFA;strokeColor=#005073;" vertex="1" parent="1">
          <mxGeometry x="1209" y="239" width="50" height="50" as="geometry" />
        </mxCell>
        <mxCell id="V0wdKE8uYw8_8xybmmoC-2270" value="" style="sketch=0;points=[[0.015,0.015,0],[0.985,0.015,0],[0.985,0.985,0],[0.015,0.985,0],[0.25,0,0],[0.5,0,0],[0.75,0,0],[1,0.25,0],[1,0.5,0],[1,0.75,0],[0.75,1,0],[0.5,1,0],[0.25,1,0],[0,0.75,0],[0,0.5,0],[0,0.25,0]];verticalLabelPosition=bottom;html=1;verticalAlign=top;aspect=fixed;align=center;pointerEvents=1;shape=mxgraph.cisco19.rect;prIcon=net_mgmt_appliance;fillColor=#FAFAFA;strokeColor=#005073;" vertex="1" parent="1">
          <mxGeometry x="1312" y="239" width="50" height="50" as="geometry" />
        </mxCell>
        <mxCell id="V0wdKE8uYw8_8xybmmoC-2271" value="" style="points=[[0.5,0,0],[0.765,0.48,0],[0.99,0.98,0],[0.5,1,0],[0.01,0.98,0],[0.235,0.48,0]];verticalLabelPosition=bottom;sketch=0;html=1;verticalAlign=top;aspect=fixed;align=center;pointerEvents=1;shape=mxgraph.cisco19.ldap;fillColor=#005073;strokeColor=none;" vertex="1" parent="1">
          <mxGeometry x="1274" y="84.25" width="50" height="42.5" as="geometry" />
        </mxCell>
        <mxCell id="V0wdKE8uYw8_8xybmmoC-2272" value="" style="sketch=0;points=[[0.015,0.015,0],[0.985,0.015,0],[0.985,0.985,0],[0.015,0.985,0],[0.25,0,0],[0.5,0,0],[0.75,0,0],[1,0.25,0],[1,0.5,0],[1,0.75,0],[0.75,1,0],[0.5,1,0],[0.25,1,0],[0,0.75,0],[0,0.5,0],[0,0.25,0]];verticalLabelPosition=bottom;html=1;verticalAlign=top;aspect=fixed;align=center;pointerEvents=1;shape=mxgraph.cisco19.rect;prIcon=secure_switch;fillColor=#FAFAFA;strokeColor=#005073;" vertex="1" parent="1">
          <mxGeometry x="640" y="370" width="50" height="50" as="geometry" />
        </mxCell>
        <mxCell id="V0wdKE8uYw8_8xybmmoC-2275" value="" style="points=[[0.03,0.36,0],[0.18,0,0],[0.5,0.34,0],[0.82,0,0],[0.97,0.36,0],[1,0.67,0],[0.975,0.975,0],[0.5,1,0],[0.025,0.975,0],[0,0.67,0]];verticalLabelPosition=bottom;sketch=0;html=1;verticalAlign=top;aspect=fixed;align=center;pointerEvents=1;shape=mxgraph.cisco19.wireless_access_point;fillColor=#005073;strokeColor=none;" vertex="1" parent="1">
          <mxGeometry x="1137" y="370" width="50" height="50" as="geometry" />
        </mxCell>
        <mxCell id="V0wdKE8uYw8_8xybmmoC-2278" value="" style="sketch=0;points=[[0.015,0.015,0],[0.985,0.015,0],[0.985,0.985,0],[0.015,0.985,0],[0.25,0,0],[0.5,0,0],[0.75,0,0],[1,0.25,0],[1,0.5,0],[1,0.75,0],[0.75,1,0],[0.5,1,0],[0.25,1,0],[0,0.75,0],[0,0.5,0],[0,0.25,0]];verticalLabelPosition=bottom;html=1;verticalAlign=top;aspect=fixed;align=center;pointerEvents=1;shape=mxgraph.cisco19.rect;prIcon=secure_switch;fillColor=#FAFAFA;strokeColor=#005073;" vertex="1" parent="1">
          <mxGeometry x="1040" y="370" width="50" height="50" as="geometry" />
        </mxCell>
        <mxCell id="V0wdKE8uYw8_8xybmmoC-2279" value="" style="sketch=0;points=[[0.015,0.015,0],[0.985,0.015,0],[0.985,0.985,0],[0.015,0.985,0],[0.25,0,0],[0.5,0,0],[0.75,0,0],[1,0.25,0],[1,0.5,0],[1,0.75,0],[0.75,1,0],[0.5,1,0],[0.25,1,0],[0,0.75,0],[0,0.5,0],[0,0.25,0]];verticalLabelPosition=bottom;html=1;verticalAlign=top;aspect=fixed;align=center;pointerEvents=1;shape=mxgraph.cisco19.rect;prIcon=secure_switch;fillColor=#FAFAFA;strokeColor=#005073;" vertex="1" parent="1">
          <mxGeometry x="980" y="370" width="50" height="50" as="geometry" />
        </mxCell>
        <mxCell id="V0wdKE8uYw8_8xybmmoC-2280" value="" style="sketch=0;points=[[0.015,0.015,0],[0.985,0.015,0],[0.985,0.985,0],[0.015,0.985,0],[0.25,0,0],[0.5,0,0],[0.75,0,0],[1,0.25,0],[1,0.5,0],[1,0.75,0],[0.75,1,0],[0.5,1,0],[0.25,1,0],[0,0.75,0],[0,0.5,0],[0,0.25,0]];verticalLabelPosition=bottom;html=1;verticalAlign=top;aspect=fixed;align=center;pointerEvents=1;shape=mxgraph.cisco19.rect;prIcon=storage;fillColor=#FAFAFA;strokeColor=#005073;" vertex="1" parent="1">
          <mxGeometry x="253" y="239" width="64" height="50" as="geometry" />
        </mxCell>
        <mxCell id="V0wdKE8uYw8_8xybmmoC-2281" value="" style="sketch=0;points=[[0.015,0.015,0],[0.985,0.015,0],[0.985,0.985,0],[0.015,0.985,0],[0.25,0,0],[0.5,0,0],[0.75,0,0],[1,0.25,0],[1,0.5,0],[1,0.75,0],[0.75,1,0],[0.5,1,0],[0.25,1,0],[0,0.75,0],[0,0.5,0],[0,0.25,0]];verticalLabelPosition=bottom;html=1;verticalAlign=top;aspect=fixed;align=center;pointerEvents=1;shape=mxgraph.cisco19.rect;prIcon=ups;fillColor=#FAFAFA;strokeColor=#005073;" vertex="1" parent="1">
          <mxGeometry x="173" y="242" width="50" height="50" as="geometry" />
        </mxCell>
        <mxCell id="V0wdKE8uYw8_8xybmmoC-2282" value="" style="sketch=0;points=[[0.015,0.015,0],[0.985,0.015,0],[0.985,0.985,0],[0.015,0.985,0],[0.25,0,0],[0.5,0,0],[0.75,0,0],[1,0.25,0],[1,0.5,0],[1,0.75,0],[0.75,1,0],[0.5,1,0],[0.25,1,0],[0,0.75,0],[0,0.5,0],[0,0.25,0]];verticalLabelPosition=bottom;html=1;verticalAlign=top;aspect=fixed;align=center;pointerEvents=1;shape=mxgraph.cisco19.rect;prIcon=ups;fillColor=#FAFAFA;strokeColor=#005073;" vertex="1" parent="1">
          <mxGeometry x="99" y="242" width="50" height="50" as="geometry" />
        </mxCell>
        <mxCell id="V0wdKE8uYw8_8xybmmoC-2283" value="" style="sketch=0;points=[[0.015,0.015,0],[0.985,0.015,0],[0.985,0.985,0],[0.015,0.985,0],[0.25,0,0],[0.5,0,0],[0.75,0,0],[1,0.25,0],[1,0.5,0],[1,0.75,0],[0.75,1,0],[0.5,1,0],[0.25,1,0],[0,0.75,0],[0,0.5,0],[0,0.25,0]];verticalLabelPosition=bottom;html=1;verticalAlign=top;aspect=fixed;align=center;pointerEvents=1;shape=mxgraph.cisco19.rect;prIcon=database_relational;fillColor=#FAFAFA;strokeColor=#005073;" vertex="1" parent="1">
          <mxGeometry x="332" y="242" width="50" height="50" as="geometry" />
        </mxCell>
        <mxCell id="V0wdKE8uYw8_8xybmmoC-2284" value="" style="sketch=0;points=[[0.015,0.015,0],[0.985,0.015,0],[0.985,0.985,0],[0.015,0.985,0],[0.25,0,0],[0.5,0,0],[0.75,0,0],[1,0.25,0],[1,0.5,0],[1,0.75,0],[0.75,1,0],[0.5,1,0],[0.25,1,0],[0,0.75,0],[0,0.5,0],[0,0.25,0]];verticalLabelPosition=bottom;html=1;verticalAlign=top;aspect=fixed;align=center;pointerEvents=1;shape=mxgraph.cisco19.server;fillColor=#005073;strokeColor=none;" vertex="1" parent="1">
          <mxGeometry x="400" y="242" width="27.500000000000004" height="50" as="geometry" />
        </mxCell>
        <mxCell id="V0wdKE8uYw8_8xybmmoC-2285" value="" style="sketch=0;points=[[0.015,0.015,0],[0.985,0.015,0],[0.985,0.985,0],[0.015,0.985,0],[0.25,0,0],[0.5,0,0],[0.75,0,0],[1,0.25,0],[1,0.5,0],[1,0.75,0],[0.75,1,0],[0.5,1,0],[0.25,1,0],[0,0.75,0],[0,0.5,0],[0,0.25,0]];verticalLabelPosition=bottom;html=1;verticalAlign=top;aspect=fixed;align=center;pointerEvents=1;shape=mxgraph.cisco19.dns_server;fillColor=#005073;strokeColor=none;" vertex="1" parent="1">
          <mxGeometry x="1353" y="76.75" width="27.500000000000004" height="50" as="geometry" />
        </mxCell>
        <mxCell id="V0wdKE8uYw8_8xybmmoC-2286" value="" style="sketch=0;points=[[0.015,0.015,0],[0.985,0.015,0],[0.985,0.985,0],[0.015,0.985,0],[0.25,0,0],[0.5,0,0],[0.75,0,0],[1,0.25,0],[1,0.5,0],[1,0.75,0],[0.75,1,0],[0.5,1,0],[0.25,1,0],[0,0.75,0],[0,0.5,0],[0,0.25,0]];verticalLabelPosition=bottom;html=1;verticalAlign=top;aspect=fixed;align=center;pointerEvents=1;shape=mxgraph.cisco19.secure_server;fillColor=#005073;strokeColor=none;" vertex="1" parent="1">
          <mxGeometry x="537" y="241" width="27.500000000000004" height="50" as="geometry" />
        </mxCell>
        <mxCell id="V0wdKE8uYw8_8xybmmoC-2287" value="" style="sketch=0;points=[[0.015,0.015,0],[0.985,0.015,0],[0.985,0.985,0],[0.015,0.985,0],[0.25,0,0],[0.5,0,0],[0.75,0,0],[1,0.25,0],[1,0.5,0],[1,0.75,0],[0.75,1,0],[0.5,1,0],[0.25,1,0],[0,0.75,0],[0,0.5,0],[0,0.25,0]];verticalLabelPosition=bottom;html=1;verticalAlign=top;aspect=fixed;align=center;pointerEvents=1;shape=mxgraph.cisco19.rect;prIcon=flow_collector;fillColor=#FAFAFA;strokeColor=#005073;" vertex="1" parent="1">
          <mxGeometry x="1364" y="239" width="64" height="50" as="geometry" />
        </mxCell>
        <mxCell id="V0wdKE8uYw8_8xybmmoC-2288" value="" style="sketch=0;points=[[0.5,0,0],[1,0.5,0],[0.5,1,0],[0,0.5,0],[0.145,0.145,0],[0.8555,0.145,0],[0.855,0.8555,0],[0.145,0.855,0]];verticalLabelPosition=bottom;html=1;verticalAlign=top;aspect=fixed;align=center;pointerEvents=1;shape=mxgraph.cisco19.lock;fillColor=#005073;strokeColor=none;" vertex="1" parent="1">
          <mxGeometry x="922.5" y="242" width="50" height="50" as="geometry" />
        </mxCell>
        <mxCell id="V0wdKE8uYw8_8xybmmoC-2289" value="" style="points=[[0,0.5,0],[0.24,0,0],[0.5,0.28,0],[0.995,0.475,0],[0.5,0.72,0],[0.24,1,0]];verticalLabelPosition=bottom;sketch=0;html=1;verticalAlign=top;aspect=fixed;align=center;pointerEvents=1;shape=mxgraph.cisco19.key;fillColor=#005073;strokeColor=none;" vertex="1" parent="1">
          <mxGeometry x="867.5" y="255.75" width="50" height="22.5" as="geometry" />
        </mxCell>
        <mxCell id="V0wdKE8uYw8_8xybmmoC-2290" value="" style="sketch=0;points=[[0.015,0.015,0],[0.985,0.015,0],[0.985,0.985,0],[0.015,0.985,0],[0.25,0,0],[0.5,0,0],[0.75,0,0],[1,0.25,0],[1,0.5,0],[1,0.75,0],[0.75,1,0],[0.5,1,0],[0.25,1,0],[0,0.75,0],[0,0.5,0],[0,0.25,0]];verticalLabelPosition=bottom;html=1;verticalAlign=top;aspect=fixed;align=center;pointerEvents=1;shape=mxgraph.cisco19.rect;prIcon=security_management;fillColor=#FAFAFA;strokeColor=#005073;" vertex="1" parent="1">
          <mxGeometry x="1312" y="291" width="50" height="50" as="geometry" />
        </mxCell>
        <mxCell id="V0wdKE8uYw8_8xybmmoC-2291" value="" style="sketch=0;points=[[0.015,0.015,0],[0.985,0.015,0],[0.985,0.985,0],[0.015,0.985,0],[0.25,0,0],[0.5,0,0],[0.75,0,0],[1,0.25,0],[1,0.5,0],[1,0.75,0],[0.75,1,0],[0.5,1,0],[0.25,1,0],[0,0.75,0],[0,0.5,0],[0,0.25,0]];verticalLabelPosition=bottom;html=1;verticalAlign=top;aspect=fixed;align=center;pointerEvents=1;shape=mxgraph.cisco19.rect;prIcon=email_security;fillColor=#FAFAFA;strokeColor=#005073;" vertex="1" parent="1">
          <mxGeometry x="1364" y="292" width="64" height="50" as="geometry" />
        </mxCell>
        <mxCell id="V0wdKE8uYw8_8xybmmoC-2292" value="" style="sketch=0;points=[[0.015,0.015,0],[0.985,0.015,0],[0.985,0.985,0],[0.015,0.985,0],[0.25,0,0],[0.5,0,0],[0.75,0,0],[1,0.25,0],[1,0.5,0],[1,0.75,0],[0.75,1,0],[0.5,1,0],[0.25,1,0],[0,0.75,0],[0,0.5,0],[0,0.25,0]];verticalLabelPosition=bottom;html=1;verticalAlign=top;aspect=fixed;align=center;pointerEvents=1;shape=mxgraph.cisco19.rect;prIcon=operations_manager;fillColor=#FAFAFA;strokeColor=#005073;" vertex="1" parent="1">
          <mxGeometry x="99" y="310" width="64" height="50" as="geometry" />
        </mxCell>
        <mxCell id="V0wdKE8uYw8_8xybmmoC-2293" value="" style="points=[[0,0,0],[0.25,0,0],[0.5,0,0],[0.75,0,0],[1,0,0],[1,0.4,0],[1,0.8,0],[0.815,1,0],[0.5,1,0],[0.185,1,0],[0,0.8,0],[0,0.4,0]];verticalLabelPosition=bottom;sketch=0;html=1;verticalAlign=top;aspect=fixed;align=center;pointerEvents=1;shape=mxgraph.cisco19.hdtv;fillColor=#005073;strokeColor=none;" vertex="1" parent="1">
          <mxGeometry x="173" y="310" width="60" height="50" as="geometry" />
        </mxCell>
        <mxCell id="V0wdKE8uYw8_8xybmmoC-2294" value="" style="sketch=0;points=[[0.015,0.015,0],[0.985,0.015,0],[0.985,0.985,0],[0.015,0.985,0],[0.25,0,0],[0.5,0,0],[0.75,0,0],[1,0.25,0],[1,0.5,0],[1,0.75,0],[0.75,1,0],[0.5,1,0],[0.25,1,0],[0,0.75,0],[0,0.5,0],[0,0.25,0]];verticalLabelPosition=bottom;html=1;verticalAlign=top;aspect=fixed;align=center;pointerEvents=1;shape=mxgraph.cisco19.rect;prIcon=virtual_desktop_service;fillColor=#FAFAFA;strokeColor=#005073;" vertex="1" parent="1">
          <mxGeometry x="99" y="370" width="64" height="50" as="geometry" />
        </mxCell>
        <mxCell id="V0wdKE8uYw8_8xybmmoC-2295" value="" style="sketch=0;points=[[0.015,0.015,0],[0.985,0.015,0],[0.985,0.985,0],[0.015,0.985,0],[0.25,0,0],[0.5,0,0],[0.75,0,0],[1,0.25,0],[1,0.5,0],[1,0.75,0],[0.75,1,0],[0.5,1,0],[0.25,1,0],[0,0.75,0],[0,0.5,0],[0,0.25,0]];verticalLabelPosition=bottom;html=1;verticalAlign=top;aspect=fixed;align=center;pointerEvents=1;shape=mxgraph.cisco19.rect;prIcon=monitor;fillColor=#FAFAFA;strokeColor=#005073;" vertex="1" parent="1">
          <mxGeometry x="173" y="370" width="64" height="50" as="geometry" />
        </mxCell>
        <mxCell id="V0wdKE8uYw8_8xybmmoC-2296" value="" style="sketch=0;points=[[0.015,0.015,0],[0.985,0.015,0],[0.985,0.985,0],[0.015,0.985,0],[0.25,0,0],[0.5,0,0],[0.75,0,0],[1,0.25,0],[1,0.5,0],[1,0.75,0],[0.75,1,0],[0.5,1,0],[0.25,1,0],[0,0.75,0],[0,0.5,0],[0,0.25,0]];verticalLabelPosition=bottom;html=1;verticalAlign=top;aspect=fixed;align=center;pointerEvents=1;shape=mxgraph.cisco19.rect;prIcon=ips_ids;fillColor=#FAFAFA;strokeColor=#005073;" vertex="1" parent="1">
          <mxGeometry x="1432" y="239" width="64" height="50" as="geometry" />
        </mxCell>
      </root>
    </mxGraphModel>
  </diagram>
</mxfile>
